{
  "accessors": [
    {
      "bufferView": 2,
      "componentType": 5126,
      "count": 24,
      "max": [
        4502.31005859375,
        4502.31005859375,
        0.0
      ],
      "min": [
        -4502.31005859375,
        -4502.31005859375,
        0.0
      ],
      "type": "VEC3"
    },
    {
      "bufferView": 2,
      "byteOffset": 288,
      "componentType": 5126,
      "count": 24,
      "max": [
        0.0,
        0.0,
        -1.0
      ],
      "min": [
        0.0,
        0.0,
        -1.0
      ],
      "type": "VEC3"
    },
    {
      "bufferView": 1,
      "componentType": 5126,
      "count": 24,
      "max": [
        0.5368139743804932,
        1.6190600395202637
      ],
      "min": [
        -1.790560007095337,
        -0.7083140015602112
      ],
      "type": "VEC2"
    },
    {
      "bufferView": 0,
      "componentType": 5125,
      "count": 66,
      "type": "SCALAR"
    },
    {
      "bufferView": 2,
      "byteOffset": 576,
      "componentType": 5126,
      "count": 9511,
      "max": [
        1632.5,
        3083.06005859375,
        4566.10986328125
      ],
      "min": [
        -1693.469970703125,
        -3312.8701171875,
        60.948001861572266
      ],
      "type": "VEC3"
    },
    {
      "bufferView": 2,
      "byteOffset": 114708,
      "componentType": 5126,
      "count": 9511,
      "max": [
        1.0,
        1.0,
        1.0
      ],
      "min": [
        -1.0,
        -1.0,
        -1.0
      ],
      "type": "VEC3"
    },
    {
      "bufferView": 1,
      "byteOffset": 192,
      "componentType": 5126,
      "count": 9511,
      "max": [
        11212.7998046875,
        7992.60986328125
      ],
      "min": [
        -11393.599609375,
        -11279.7998046875
      ],
      "type": "VEC2"
    },
    {
      "bufferView": 0,
      "byteOffset": 264,
      "componentType": 5125,
      "count": 22923,
      "type": "SCALAR"
    },
    {
      "bufferView": 2,
      "byteOffset": 228840,
      "componentType": 5126,
      "count": 979,
      "max": [
        1530.7900390625,
        2948.550048828125,
        1101.260009765625
      ],
      "min": [
        -1591.760009765625,
        -3130.409912109375,
        0.0
      ],
      "type": "VEC3"
    },
    {
      "bufferView": 2,
      "byteOffset": 240588,
      "componentType": 5126,
      "count": 979,
      "max": [
        0.9480384588241577,
        0.9960038661956787,
        1.0
      ],
      "min": [
        -0.947975218296051,
        -0.9959184527397156,
        -1.0
      ],
      "type": "VEC3"
    },
    {
      "bufferView": 1,
      "byteOffset": 76280,
      "componentType": 5126,
      "count": 979,
      "max": [
        0.9762549996376038,
        1.0000300407409668
      ],
      "min": [
        0.02301339991390705,
        -0.004425469785928726
      ],
      "type": "VEC2"
    },
    {
      "bufferView": 0,
      "byteOffset": 91956,
      "componentType": 5125,
      "count": 1944,
      "type": "SCALAR"
    }
  ],
  "asset": {
    "extras": {
      "author": "lm9241221 (https://sketchfab.com/lm9241221)",
      "license": "CC-BY-4.0 (http://creativecommons.org/licenses/by/4.0/)",
      "source": "https://sketchfab.com/3d-models/fv511low-poly-839a3ae535934b8f98c5cd697131739d",
      "title": "FV511(LOW POLY)"
    },
    "generator": "Sketchfab-13.73.0",
    "version": "2.0"
  },
  "bufferViews": [
    {
      "buffer": 0,
      "byteLength": 99732,
      "name": "floatBufferViews",
      "target": 34963
    },
    {
      "buffer": 0,
      "byteLength": 84112,
      "byteOffset": 99732,
      "byteStride": 8,
      "name": "floatBufferViews",
      "target": 34962
    },
    {
      "buffer": 0,
      "byteLength": 252336,
      "byteOffset": 183844,
      "byteStride": 12,
      "name": "floatBufferViews",
      "target": 34962
    }
  ],
  "buffers": [
    {
      "byteLength": 436180,
      "uri": "scene.bin"
    }
  ],
  "images": [
    {
      "uri": "textures/Tex_0046_0_baseColor.jpeg"
    },
    {
      "uri": "textures/Tex_0046_0_metallicRoughness.png"
    },
    {
      "uri": "textures/Tex_0047_0_baseColor.jpeg"
    },
    {
      "uri": "textures/Tex_0047_0_metallicRoughness.png"
    },
    {
      "uri": "textures/present_48_grill_low_ground_BaseColor_baseColor.jpeg"
    },
    {
      "uri": "textures/present_48_grill_low_ground_BaseColor_metallicRoughness.png"
    }
  ],
  "materials": [
    {
      "doubleSided": true,
      "name": "Tex_0046_0",
      "pbrMetallicRoughness": {
        "baseColorTexture": {
          "index": 0
        },
        "metallicFactor": 0.4921919762041179,
        "metallicRoughnessTexture": {
          "index": 1
        }
      }
    },
    {
      "doubleSided": true,
      "name": "Tex_0047_0",
      "pbrMetallicRoughness": {
        "baseColorTexture": {
          "index": 2
        },
        "metallicRoughnessTexture": {
          "index": 3
        }
      }
    },
    {
      "doubleSided": true,
      "name": "present_48_grill_low_ground_BaseColor",
      "pbrMetallicRoughness": {
        "baseColorFactor": [
          0.565335056259219,
          0.565335056259219,
          0.565335056259219,
          1.0
        ],
        "baseColorTexture": {
          "index": 4
        },
        "metallicRoughnessTexture": {
          "index": 5
        },
        "roughnessFactor": 0.7150467506186686
      }
    }
  ],
  "meshes": [
    {
      "name": "Object_0",
      "primitives": [
        {
          "attributes": {
            "NORMAL": 1,
            "POSITION": 0,
            "TEXCOORD_0": 2
          },
          "indices": 3,
          "material": 2,
          "mode": 4
        }
      ]
    },
    {
      "name": "Object_1",
      "primitives": [
        {
          "attributes": {
            "NORMAL": 5,
            "POSITION": 4,
            "TEXCOORD_0": 6
          },
          "indices": 7,
          "material": 0,
          "mode": 4
        }
      ]
    },
    {
      "name": "Object_2",
      "primitives": [
        {
          "attributes": {
            "NORMAL": 9,
            "POSITION": 8,
            "TEXCOORD_0": 10
          },
          "indices": 11,
          "material": 1,
          "mode": 4
        }
      ]
    }
  ],
  "nodes": [
    {
      "children": [
        1
      ],
      "matrix": [
        0.0009689978905953467,
        0.0,
        0.0,
        0.0,
        0.0,
        2.1516075379043247e-19,
        -0.0009689978905953467,
        0.0,
        0.0,
        0.0009689978905953467,
        2.1516075379043247e-19,
        0.0,
        0.0,
        0.0,
        0.0,
        1.0
      ],
      "name": "Sketchfab_model"
    },
    {
      "children": [
        2,
        3,
        4
      ],
      "name": "FV511(LOW POLY).obj.cleaner.materialmerger.gles"
    },
    {
      "mesh": 0,
      "name": "Object_2"
    },
    {
      "mesh": 1,
      "name": "Object_3"
    },
    {
      "mesh": 2,
      "name": "Object_4"
    }
  ],
  "samplers": [
    {
      "magFilter": 9729,
      "minFilter": 9987,
      "wrapS": 10497,
      "wrapT": 10497
    }
  ],
  "scene": 0,
  "scenes": [
    {
      "name": "Sketchfab_Scene",
      "nodes": [
        0
      ]
    }
  ],
  "textures": [
    {
      "sampler": 0,
      "source": 0
    },
    {
      "sampler": 0,
      "source": 1
    },
    {
      "sampler": 0,
      "source": 2
    },
    {
      "sampler": 0,
      "source": 3
    },
    {
      "sampler": 0,
      "source": 4
    },
    {
      "sampler": 0,
      "source": 5
    }
  ]
}
